<svg width="200" height="190" viewBox="0 0 200 190" fill="none" xmlns="http://www.w3.org/2000/svg">
<path d="M80.5918 10.3164C80.9336 10.4622 81.2715 10.6126 81.6178 10.7546C84.3679 11.8724 86.4317 13.6204 87.5618 16.4902C91.3542 26.0982 93.804 36.0652 95.7038 46.1836C95.9421 47.4537 96.1817 48.7279 96.362 49.6797C97.7579 41.9616 99.1284 33.9857 100.658 26.0464C101.518 21.5724 105.701 18.9806 110.16 19.8986C114.356 20.7605 117.068 24.9989 116.214 29.3726C114.44 38.4682 113.55 47.6609 113.378 56.9892C113.616 56.3252 113.862 55.6631 114.09 54.9971C115.837 49.9052 117.934 44.9854 121.076 40.5771C123.962 36.5374 128.734 35.6214 132.516 38.3452C136.206 41.0034 136.839 45.8732 134.061 49.8616C130.259 55.3257 128.607 61.6096 127.268 68.0049C125.867 74.6826 127.166 81.1207 128.698 87.6216C132.74 104.82 133.486 122.248 131.986 139.83C130.598 156.12 126.588 171.712 120.148 186.702C119.648 187.862 118.55 188.767 117.738 189.791H116.749C114.255 188.504 113.904 187.499 115.024 184.78C119.335 174.288 122.945 163.578 124.805 152.343C127.063 138.675 127.826 124.946 126.723 111.12C126.011 102.21 124.572 93.4331 122.359 84.7664C119.602 73.9402 121.727 63.5881 125.845 53.5264C126.827 51.1142 128.263 48.8806 129.589 46.6247C130.499 45.0889 130.466 43.7166 129.277 42.8389C127.981 41.8812 126.667 42.1729 125.552 43.8246C121.488 49.8447 118.93 56.5264 117.449 63.5862C116.737 66.9944 116.477 70.5101 116.157 73.9906C115.909 76.6247 114.379 78.3506 111.995 78.3604C109.599 78.3643 108.011 76.7126 107.849 74.0186C106.909 58.8622 107.963 43.8319 110.721 28.9152C110.943 27.7076 110.951 26.6112 109.911 25.7792C108.409 24.5872 106.321 25.4212 105.967 27.4869C104.595 35.5729 103.151 43.6509 102.045 51.7769C101.373 56.6969 101.257 61.7007 100.921 66.6689C100.757 69.1631 99.3634 70.7568 97.1752 70.8551C94.7755 70.9593 93.2213 69.6194 92.985 67.0269C91.8372 54.3551 89.7207 41.8552 86.1608 29.6286C85.0306 25.7502 83.597 21.9567 82.2247 18.1527C81.7247 16.7647 79.9603 15.6769 78.741 15.8864C77.269 16.1403 76.4552 17.1585 76.2168 18.5582C76.1146 19.1663 76.237 19.8662 76.433 20.4664C81.073 34.7164 84.0092 49.3364 85.7852 64.1997C85.8711 64.9055 85.901 65.6177 85.9193 66.3299C85.9714 68.4719 84.7754 70.1001 82.9231 70.4399C80.9088 70.8162 79.3449 69.7238 78.4049 67.7517C76.5951 63.9659 74.9589 60.0317 72.6348 56.5759C67.4948 48.9359 60.5208 43.2556 52.2731 39.1559C51.749 38.8961 51.1631 38.6637 50.5849 38.6136C49.3089 38.4918 47.9951 38.4417 47.5453 40.0856C47.1234 41.6318 47.4613 42.8096 48.9235 43.7178C53.6834 46.6819 58.0134 50.1996 61.8812 54.2659C67.7894 60.4841 72.4952 67.4938 73.9874 76.0376C74.5772 79.4139 75.9314 80.6034 79.0115 81.4139C84.0174 82.7316 88.5512 85.2219 92.4535 88.7141C93.6996 89.8339 93.8396 91.5383 92.8832 92.6763C91.9151 93.824 90.2412 93.9341 88.893 92.9302C88.8488 92.8983 88.8091 92.856 88.7693 92.8221C82.5357 87.5683 75.1652 85.1021 67.186 84.7141C62.1898 84.4719 57.1398 84.858 52.1502 85.3404C50.1105 85.5403 48.1058 86.6086 46.1983 87.5201C44.2543 88.4497 43.5805 90.3801 44.2642 92.1939C44.9745 94.0819 46.7922 95.0376 48.9158 94.5097C58.9738 92.0097 68.1158 93.9674 76.3658 100.164C80.5222 103.284 82.6555 107.594 82.8775 112.694C83.9674 137.904 79.2915 162.009 68.7135 184.941C67.8698 186.775 67.3437 188.921 65.1412 189.793H64.1555C61.7993 188.359 61.4113 187.339 62.4914 185.163C67.8893 174.283 71.7336 162.868 74.2316 150.996C76.8956 138.312 78.1814 125.494 77.3234 112.531C77.1073 109.275 75.6314 106.477 72.8893 104.457C66.0409 99.4146 58.5351 97.7987 50.2376 99.8769C45.1979 101.139 40.6159 98.5748 38.9056 93.6809C38.8034 93.3866 38.6478 93.1086 38.5176 92.8267V88.8827C39.7995 84.8469 42.7774 82.6047 46.5554 81.1327C50.5516 79.5787 54.7272 79.1491 58.9474 79.0391C62.2651 78.9492 65.5834 79.0189 68.9897 79.0189C68.6877 75.6347 67.508 72.4745 65.9799 69.453C61.3979 60.3892 54.3282 53.623 45.8282 48.3414C41.2702 45.5015 41.1804 40.0452 42.9362 36.8297C44.8686 33.2835 49.8822 31.874 53.8861 33.7874C61.5917 37.4715 68.2877 42.5035 73.8277 49.0172C75.5816 51.079 77.1559 53.2972 79.0334 55.7314C78.9156 54.8674 78.8615 54.3434 78.7691 53.8212C76.9071 42.9234 74.4729 32.1662 71.0249 21.6479C69.7632 17.7917 71.3869 13.64 74.8289 11.532C75.6069 11.0561 76.4748 10.7241 77.3029 10.3244C78.4006 10.3191 79.4989 10.3191 80.5926 10.3191L80.5918 10.3164Z" fill="black"/>
<path d="M153.516 42.4666C153.388 51.9424 150.57 60.5149 144.85 68.0999C144.49 68.5798 144.106 69.0622 143.648 69.4398C142.587 70.322 141.415 70.3259 140.331 69.5218C139.193 68.6735 138.861 67.5102 139.465 66.1858C139.667 65.7457 139.989 65.3557 140.281 64.9638C148.113 54.3317 149.965 42.7522 145.823 30.2038C145.593 29.504 145.419 28.6921 145.539 27.9897C145.755 26.7253 146.691 25.9935 147.961 25.9057C149.383 25.8054 150.355 26.532 150.837 27.8633C152.315 31.8913 153.177 36.0475 153.393 40.3353C153.43 41.0437 153.472 41.7533 153.516 42.4655L153.516 42.4666Z" fill="black"/>
<path d="M161.48 45.2511C161.44 51.9751 159.668 58.1834 155.89 63.7894C154.698 65.5576 153.18 66.0212 151.758 65.0856C150.35 64.1657 150.152 62.4756 151.268 60.7718C156.13 53.3596 157.052 45.3721 154.812 36.9118C154.726 36.5941 154.604 36.2881 154.534 35.9697C154.166 34.2497 154.894 32.9717 156.476 32.5421C157.936 32.1423 159.382 32.8162 159.766 34.4484C159.766 34.4478 161.516 42.6041 161.48 45.2517L161.48 45.2511Z" fill="black"/>
</svg>
