<svg width="32" height="32" viewBox="0 0 32 32" fill="none" xmlns="http://www.w3.org/2000/svg">
<rect width="32" height="32" fill="white"/>
<path d="M6.07812 27.8V4.36249H13.4531C16.2969 4.36249 18.7552 4.83645 20.8281 5.78436C22.901 6.73228 24.5 8.08645 25.625 9.84686C26.75 11.5969 27.3125 13.675 27.3125 16.0812C27.3125 18.4771 26.75 20.5552 25.625 22.3156C24.5 24.076 22.901 25.4302 20.8281 26.3781C18.7552 27.326 16.2969 27.8 13.4531 27.8H6.07812ZM10.2031 24.175H13.6094C15.6198 24.175 17.3281 23.8625 18.7344 23.2375C20.151 22.6021 21.2292 21.6802 21.9688 20.4719C22.7188 19.2635 23.0938 17.8 23.0938 16.0812C23.0938 14.3625 22.7188 12.8989 21.9688 11.6906C21.2292 10.4823 20.151 9.56561 18.7344 8.94061C17.3281 8.3052 15.6198 7.98749 13.6094 7.98749H10.2031V24.175Z" fill="black"/>
<rect x="5" y="4" width="8" height="7" fill="white"/>
<circle cx="8.34961" cy="6.54999" r="2.25" fill="black"/>
</svg>
