<svg width="32" height="32" viewBox="0 0 32 32" fill="none" xmlns="http://www.w3.org/2000/svg">
<path d="M5.90625 27.8V4.36249H13.5781C16.4115 4.36249 18.8646 4.84165 20.9375 5.79999C23.0104 6.75832 24.6146 8.11249 25.75 9.86249C26.8854 11.6125 27.4531 13.6854 27.4531 16.0812C27.4531 18.4667 26.8854 20.5396 25.75 22.3C24.6146 24.05 23.0104 25.4042 20.9375 26.3625C18.8646 27.3208 16.4115 27.8 13.5781 27.8H5.90625ZM10.7188 23.5969H13.75C15.625 23.5969 17.2135 23.3052 18.5156 22.7219C19.8281 22.1281 20.8229 21.2739 21.5 20.1594C22.1875 19.0344 22.5312 17.675 22.5312 16.0812C22.5312 14.4771 22.1875 13.1177 21.5 12.0031C20.8229 10.8885 19.8281 10.0396 18.5156 9.45624C17.2135 8.86249 15.625 8.56561 13.75 8.56561H10.7188V23.5969Z" fill="black"/>
<rect x="5" y="3.79999" width="9" height="8" fill="white"/>
<circle cx="8.34961" cy="6.64999" r="2.25" fill="black" stroke="black" stroke-width="0.5"/>
</svg>
