<svg width="100" height="95" viewBox="0 0 100 95" fill="none" xmlns="http://www.w3.org/2000/svg">
<path fill-rule="evenodd" clip-rule="evenodd" d="M52.9264 91.9737C52.8524 90.9689 52.8112 90.003 52.7051 89.0424C52.4305 86.5354 52.1833 84.0223 51.8194 81.5274C51.5012 79.353 51.0335 77.2016 50.6513 75.0364C50.5994 74.7411 50.5956 74.4054 50.6826 74.1224C52.4076 68.4943 53.932 62.8111 55.0916 57.0417C55.8835 53.1027 56.6167 49.1484 57.2117 45.1765C57.7839 41.3511 58.1699 37.4968 58.5865 33.6491C58.7833 31.8303 58.8604 29.997 58.9909 28.1704C58.9962 28.0911 59.0145 27.9904 58.9771 27.9332C58.659 27.4495 58.7482 26.9123 58.7643 26.3859C58.8383 23.9797 58.9405 21.574 58.9741 19.167C58.9817 18.6047 58.749 18.0432 58.6514 17.4778C58.2676 15.2722 58.2912 13.0901 59.1877 10.9958C60.2169 8.58955 62.1059 7.10791 64.4947 6.19775C66.4227 5.46457 68.4369 5.19297 70.4861 5.12277C72.5178 5.05487 74.5176 5.23187 76.4332 5.95972C79.6215 7.16974 81.4441 9.515 82.06 12.833C82.3178 14.2261 82.2957 15.623 82.1683 17.033C82.0821 17.9813 82.1492 18.9441 82.1485 19.9009C82.1454 21.7793 82.1416 23.6568 82.1408 25.5353C82.1408 26.0213 82.1439 26.5042 81.8288 26.9231C81.7761 26.9933 81.799 27.123 81.7922 27.226C81.5419 31.0063 81.3329 34.7912 81.033 38.5678C80.6783 43.0371 80.071 47.4766 79.3584 51.9024C77.8043 61.5567 75.5605 71.0483 72.6414 80.3809C72.5582 80.6456 72.4057 80.9157 72.2134 81.1125C67.9157 85.5506 63.3306 89.6643 58.3523 93.3317C57.851 93.6994 57.3429 94.0595 56.8363 94.4196C56.3816 94.7446 55.8773 94.8949 55.3142 94.8949C43.3453 94.8911 31.3767 94.8919 19.408 94.8919C18.4711 94.8919 17.8867 94.4357 17.7578 93.6086C17.6334 92.8106 18.2705 92.0217 19.0769 91.9775C19.2028 91.9706 19.3302 91.9744 19.4568 91.9744H52.4568C52.601 91.9729 52.7475 91.9729 52.926 91.9729L52.9264 91.9737ZM78.8287 28.003C73.2119 29.2748 67.5838 29.5434 61.8801 28.83C60.944 44.1331 58.2539 59.0898 53.8463 73.7578C54.6794 73.9187 55.4164 74.227 56.0696 74.7236C56.7318 75.2279 57.2323 75.865 57.5893 76.586C60.3405 75.6842 62.617 76.3159 64.436 78.5651C66.3029 77.4001 68.2301 77.3764 70.226 78.2942C75.2249 61.8987 78.1118 45.1595 78.829 28.0032L78.8287 28.003ZM67.0375 17.8254C67.0398 17.7804 67.0406 17.7354 67.0429 17.6904C67.8256 17.6904 68.6099 17.7217 69.3911 17.6843C72.671 17.5302 75.8884 16.9839 79.0483 16.0966C79.2474 16.0409 79.3443 15.9524 79.3337 15.7449C79.2947 15.0209 79.3169 14.29 79.2116 13.5765C78.8339 10.9955 77.4187 9.27362 74.8864 8.51834C73.4223 8.08118 71.9247 7.98733 70.4087 8.04838C68.7195 8.11552 67.0594 8.34364 65.4725 8.95551C63.5797 9.68489 62.1553 10.8873 61.6036 12.9206C61.2282 14.3045 61.3015 15.7014 61.5456 17.1006C61.5898 17.3547 61.6944 17.4478 61.9393 17.4638C63.6406 17.5813 65.3381 17.7041 67.0373 17.8254L67.0375 17.8254ZM61.7352 25.8424C61.8695 25.8661 61.9824 25.8936 62.0953 25.9073C64.4291 26.2056 66.7721 26.3315 69.1273 26.275C72.4453 26.1957 75.7131 25.7669 78.9342 24.9643C79.176 24.9033 79.2462 24.8102 79.2454 24.5722C79.2363 23.1088 79.2401 21.6456 79.2401 20.1821V19.0751C73.5241 20.6017 67.7663 21.0099 61.9022 20.4011C61.8458 22.2253 61.7909 24.0153 61.7352 25.8424ZM54.0227 76.9245C54.1249 77.4852 54.2386 78.0246 54.3164 78.5686C54.6643 80.9956 55.0046 83.4225 55.3365 85.8508C55.3624 86.0446 55.4112 86.1629 55.6058 86.2338C57.1179 86.7847 58.6279 87.3409 60.1361 87.9062C60.3581 87.9878 60.516 87.9573 60.6938 87.7979C62.7057 86.0072 64.7321 84.2295 66.7348 82.426C67.3207 81.898 67.8426 81.2968 68.414 80.7086C68.1928 80.6666 67.9738 80.6056 67.751 80.5842C66.6738 80.4805 65.7819 80.9894 65.2463 82.0033C64.9213 82.6175 64.3064 82.9394 63.6762 82.8235C63.0201 82.7021 62.5753 82.2223 62.4685 81.5333C62.4326 81.306 62.3952 81.0755 62.3182 80.8627C61.6262 78.9531 59.1092 78.4885 57.7832 80.0265C57.3903 80.4812 56.9211 80.7178 56.3214 80.6087C55.5371 80.4637 55.0687 79.8114 55.1343 78.9988C55.2083 78.0932 54.7673 77.2525 54.0227 76.9245Z" fill="black"/>
</svg>
